<svg width="30" height="30" viewBox="0 0 30 30" fill="none" xmlns="http://www.w3.org/2000/svg">
<g clip-path="url(#clip0_1_3482)">
<path d="M15.0482 0.516174C16.0446 0.419768 17.0849 0.741525 17.9876 1.28473H17.9886C20.3896 2.72771 22.3033 5.22903 23.971 7.59625C25.1023 9.20291 26.0688 10.8225 26.8333 12.6177V12.6187C27.7089 14.6714 28.3863 16.8138 28.9427 18.9937V18.9947C29.0008 19.2195 29.0569 19.446 29.1126 19.6734L29.1136 19.6773L29.1165 19.6871L29.2112 20.0816C29.2286 20.1553 29.2398 20.1977 29.2523 20.2545L29.2552 20.2672L29.3109 20.5054C29.823 22.7256 29.25 24.3471 28.1194 25.5718C26.9627 26.825 25.1903 27.6947 23.2708 28.2896C19.4392 29.4772 15.2564 29.4995 15.0062 29.4996H14.9935L14.1663 29.4791C12.7555 29.4206 9.78283 29.1986 6.95441 28.358C5.06658 27.7969 3.29638 26.9752 2.09113 25.7886C0.909204 24.6249 0.252188 23.096 0.587219 21.022L0.588196 21.0172C0.596838 20.9603 0.606954 20.9031 0.617493 20.8443C0.637661 20.7342 0.661679 20.6206 0.688782 20.5035L0.687805 20.5025C0.741435 20.272 0.79719 20.0422 0.852844 19.8111L0.851868 19.8101C0.887791 19.6627 0.924008 19.5176 0.960266 19.3736V19.3726C0.99443 19.2362 1.02907 19.1012 1.06378 18.9654C1.09709 18.8353 1.1289 18.7069 1.16241 18.5806V18.5836C1.16356 18.5797 1.164 18.5749 1.16534 18.5699L1.1673 18.566C1.23023 18.3263 1.29442 18.0874 1.36163 17.8502L1.36456 17.8404C1.37334 17.8068 1.37976 17.7805 1.38702 17.7554L1.38898 17.7505C1.87877 16.0001 2.45719 14.2801 3.16437 12.6187C3.92988 10.8233 4.89638 9.20292 6.02765 7.59625C7.6954 5.22889 9.60981 2.72771 12.011 1.28473C12.9135 0.741654 13.9551 0.419913 14.9515 0.516174L15.0003 0.521057L15.0482 0.516174ZM1.15656 18.6021L1.15753 18.6002L1.15851 18.5972C1.15777 18.5995 1.15678 18.6014 1.15656 18.6021Z" fill="url(#paint0_radial_1_3482)" stroke="white"/>
<circle cx="19.0001" cy="8.00006" r="1.5" fill="#D7D9FF" stroke="white"/>
<path d="M1.15729 18.5967H1.15826C1.15922 18.5937 1.16061 18.5893 1.16217 18.584C1.16329 18.5802 1.16379 18.5752 1.1651 18.5703L1.16705 18.5664C1.21613 18.3795 1.26688 18.1933 1.31842 18.0078C2.15526 17.3728 3.06901 16.6202 3.84381 15.835C4.61737 15.051 5.29872 14.1902 5.59479 13.3506C5.96981 12.2875 6.41302 11.7164 6.83014 11.4287C7.23208 11.1515 7.6652 11.0994 8.12799 11.1973C8.60536 11.2983 9.10279 11.5582 9.57233 11.8906C9.92143 12.1378 10.2403 12.4143 10.5069 12.6689L10.7549 12.9141C11.2849 13.4556 12.0998 13.5954 12.7715 13.2559L12.9044 13.1816C13.6373 12.7259 14.6121 11.8723 15.5587 10.293C16.0744 9.43317 17.1 9.07334 17.9942 9.40625L18.171 9.48242C19.8721 10.3131 22.7496 12.4029 27.4258 17.3867L28.3848 18.4219C28.5958 18.653 28.7895 18.8802 28.9688 19.1016L29.1124 19.6738L29.1133 19.6768L29.1163 19.6875L29.211 20.082C29.2283 20.1556 29.2395 20.198 29.252 20.2549L29.2549 20.2676C29.2742 20.3455 29.2894 20.4145 29.3106 20.5049C29.8229 22.7251 29.2497 24.3464 28.1192 25.5713C26.9624 26.8245 25.1901 27.6951 23.2706 28.29C19.439 29.4776 15.2562 29.5 15.0059 29.5H14.9932L14.1661 29.4785C12.7552 29.4201 9.78257 29.199 6.95416 28.3584C5.06615 27.7973 3.29616 26.9748 2.09088 25.7881C0.909029 24.6244 0.25208 23.0963 0.586975 21.0225L0.587952 21.0176C0.596634 20.9604 0.606651 20.9028 0.617249 20.8438C0.637399 20.7338 0.660497 20.6198 0.687561 20.5029C0.741217 20.2723 0.795942 20.0418 0.851624 19.8105L0.960022 19.373L1.06354 18.9648L1.15729 18.5967ZM1.15729 18.5967C1.15786 18.5948 1.15945 18.5924 1.16022 18.5898C1.16096 18.5873 1.16129 18.5843 1.16217 18.5811L1.15729 18.5967Z" fill="#8589EB" stroke="white"/>
<path opacity="0.15" d="M10.7794 19.8376C12.6468 18.1509 14.8931 17.9108 16.9278 18.3933C18.9822 18.8805 20.7577 20.0929 21.6065 21.2058C22.3105 22.1283 23.3764 22.4576 24.4044 22.5124C25.4325 22.5672 26.4962 22.3531 27.3174 22.113V22.114C27.613 22.0279 27.9082 21.9289 28.1983 21.8132H28.1993C28.4731 21.7039 28.7447 21.5788 29.0098 21.4333L29.0108 21.4343C29.0674 21.4036 29.1249 21.3697 29.1827 21.3357L29.1837 21.3366C29.2679 21.2873 29.3512 21.235 29.4337 21.1814C29.6947 23.06 29.1318 24.475 28.1192 25.572C26.9624 26.8252 25.1901 27.6948 23.2706 28.2898C19.439 29.4773 15.2562 29.4997 15.0059 29.4997H14.9932L14.1661 29.4792C12.7552 29.4208 9.78259 29.1987 6.95416 28.3581C5.06632 27.7971 3.29613 26.9754 2.09088 25.7888C0.908959 24.625 0.251943 23.0962 0.586975 21.0222L0.587952 21.0173C0.596595 20.9604 0.606709 20.9032 0.617249 20.8445C0.637417 20.7344 0.661435 20.6207 0.688538 20.5036L0.687561 20.5027C0.741184 20.2722 0.796954 20.0424 0.8526 19.8112L0.851624 19.8103C0.860797 19.7726 0.870815 19.7353 0.879944 19.698C1.40669 19.6533 1.90248 19.8002 2.30377 20.323L2.30573 20.3249C2.36916 20.4067 2.43612 20.4917 2.50592 20.5759C2.85728 20.9999 3.25387 21.3902 3.70807 21.697V21.698C3.95194 21.8629 4.21328 22.004 4.49323 22.113L4.77936 22.2107C5.48139 22.4193 6.2615 22.4159 7.12701 22.1482L7.12799 22.1491C8.20181 21.818 9.40411 21.0798 10.7794 19.8376Z" fill="white" stroke="white"/>
<path opacity="0.15" d="M1.25299 18.2489C1.43719 18.3285 1.62285 18.4336 1.80573 18.5771C2.30379 18.9679 2.81091 19.6365 3.25592 20.7382L3.2569 20.7392C3.33171 20.9236 3.40502 21.1201 3.47467 21.328L3.47565 21.3329L3.51959 21.4579C3.94665 22.6748 4.70093 24.0937 6.07721 24.6942C6.21513 24.7549 6.35834 24.8062 6.50397 24.8476C7.40018 25.1012 8.32827 24.9735 9.16412 24.6786C9.89701 24.42 10.5853 24.0242 11.1651 23.6015L11.4063 23.4189C11.6058 23.2629 11.803 23.0933 11.9805 22.9452C12.164 22.7922 12.3368 22.6529 12.5157 22.5321H12.5167C13.6443 21.7705 14.9325 21.9314 16.2149 22.5946C17.3395 23.1764 18.385 24.1126 19.1505 24.9843L19.461 25.3524C19.5335 25.4426 19.6051 25.5345 19.6768 25.6269V25.6259C19.9746 26.0116 20.2892 26.3276 20.6212 26.5722V26.5732C21.3628 27.1226 22.1574 27.2967 22.9522 27.1776C23.7287 27.0612 24.4732 26.6708 25.1583 26.1503C26.5247 25.1121 27.7819 23.4585 28.7579 21.954C28.9128 21.7167 29.0593 21.482 29.1983 21.2548C29.266 21.1448 29.3313 21.0358 29.3956 20.9286C29.7455 22.9338 29.1767 24.4265 28.1192 25.5722C26.9624 26.8253 25.1901 27.695 23.2706 28.2899C19.439 29.4775 15.2562 29.4999 15.0059 29.4999H14.9932L14.1661 29.4794C12.7552 29.421 9.78259 29.1989 6.95416 28.3583C5.06633 27.7972 3.29614 26.9755 2.09088 25.789C0.908959 24.6252 0.251943 23.0964 0.586975 21.0224L0.587952 21.0175C0.596594 20.9606 0.606709 20.9034 0.617249 20.8446C0.637417 20.7345 0.661435 20.6209 0.688538 20.5038L0.687561 20.5028C0.741189 20.2723 0.796949 20.0426 0.8526 19.8114L0.851624 19.8105C0.887547 19.663 0.923764 19.518 0.960022 19.3739V19.373C0.994188 19.2365 1.02882 19.1016 1.06354 18.9657C1.09684 18.8356 1.12866 18.7073 1.16217 18.581V18.5839C1.16332 18.58 1.16376 18.5753 1.1651 18.5702L1.16705 18.5663C1.19492 18.4602 1.2244 18.3546 1.25299 18.2489ZM1.15631 18.6024L1.15729 18.6005L1.15826 18.5976C1.15754 18.5998 1.15655 18.6017 1.15631 18.6024Z" fill="white" stroke="white"/>
<path opacity="0.15" d="M29.3184 20.5467C29.8142 22.746 29.2428 24.3548 28.1192 25.5721C26.9624 26.8253 25.19 27.6949 23.2706 28.2899C19.439 29.4774 15.2562 29.4998 15.0059 29.4998H14.9932L14.1661 29.4793C12.7552 29.4209 9.78259 29.1988 6.95416 28.3582C5.06634 27.7972 3.29614 26.9755 2.09088 25.7889C0.95368 24.6692 0.304897 23.2118 0.555725 21.2557C1.20378 20.9045 2.02453 20.6131 2.80377 20.7479V20.7489C3.0314 20.7889 3.25665 20.8647 3.47565 20.9872H3.47662C3.82021 21.1782 4.17254 21.4952 4.50201 22.0038C4.64282 22.2209 4.78014 22.4732 4.91022 22.7655L5.03717 23.0721C5.24433 23.6035 5.52721 24.1173 5.89362 24.5565C6.48094 25.2614 7.2921 25.7775 8.33307 25.8358C9.91435 25.9238 11.3152 25.0833 12.4229 24.3192L12.4219 24.3182C12.9551 23.9507 13.4438 23.8546 13.919 23.9032C14.4138 23.9538 14.9277 24.1658 15.4922 24.4793C16.0774 24.8044 16.6064 25.1706 17.2501 25.5555C17.8615 25.9211 18.5256 26.2692 19.2364 26.4491C19.8171 26.596 20.3767 26.6656 20.9141 26.6707V26.6698C24.0024 26.7018 26.2244 24.6066 27.462 23.0311C27.9027 22.4702 28.2324 21.9605 28.4434 21.6043C28.5349 21.4502 28.605 21.3249 28.6524 21.2372C28.6759 21.1936 28.6936 21.1588 28.7061 21.1346C28.7087 21.1295 28.7108 21.1241 28.713 21.12C28.7144 21.1177 28.7167 21.1154 28.7188 21.1122C28.7275 21.0987 28.7414 21.0767 28.7608 21.0497C28.8001 20.9949 28.859 20.9194 28.9337 20.8407C29.0472 20.721 29.1789 20.6152 29.3184 20.5467Z" fill="white" stroke="white"/>
<path opacity="0.15" d="M2.14166 18.6836C2.73368 18.651 3.2726 18.7396 3.72272 18.9893C4.16454 19.2344 4.56497 19.6585 4.84772 20.3809C5.23712 21.377 5.96104 21.8965 6.84088 22.1514C7.30523 22.2865 7.81187 22.3481 8.33307 22.377C9.16205 22.4231 9.88908 22.1413 10.5274 21.8232C10.8431 21.666 11.1633 21.4861 11.4542 21.3301C11.7535 21.1695 12.0368 21.0251 12.3204 20.9141C15.0956 19.8283 16.773 20.1801 18.046 20.8564C18.7086 21.2086 19.2754 21.6554 19.8663 22.1055C20.4411 22.5433 21.0505 22.9934 21.7413 23.2598C24.1632 24.1939 25.9904 23.9197 27.3184 23.1572C27.8829 22.8332 28.3427 22.4292 28.712 22.0156L28.711 22.0146C28.9646 21.7326 29.1762 21.4457 29.3506 21.1768L29.3516 21.1758C29.3746 21.1401 29.3953 21.1035 29.4171 21.0684C29.7171 23.0035 29.1521 24.4533 28.1192 25.5723C26.9624 26.8254 25.19 27.6951 23.2706 28.29C19.439 29.4776 15.2562 29.5 15.0059 29.5H14.9932L14.1661 29.4795C12.7552 29.4211 9.78259 29.199 6.95416 28.3584C5.06635 27.7973 3.29614 26.9756 2.09088 25.7891C0.908976 24.6253 0.251976 23.0964 0.586975 21.0225L0.587952 21.0176C0.596593 20.9607 0.60671 20.9035 0.617249 20.8447C0.637417 20.7346 0.661435 20.621 0.688538 20.5039L0.687561 20.5029C0.741197 20.2724 0.79694 20.0427 0.8526 19.8115L0.851624 19.8105C0.887547 19.6631 0.923765 19.5181 0.960022 19.374V19.373C0.994234 19.2364 1.02877 19.1009 1.06354 18.9648C1.07358 18.9256 1.08287 18.8865 1.09283 18.8477C1.33404 18.7882 1.57589 18.7422 1.81451 18.7129L2.14166 18.6836ZM1.16022 18.5908C1.15894 18.5952 1.15791 18.5987 1.15729 18.6006L1.15631 18.6025C1.15652 18.6019 1.15746 18.5992 1.15826 18.5967L1.16217 18.584C1.1615 18.5864 1.16079 18.5889 1.16022 18.5908Z" fill="white" stroke="white"/>
</g>
<defs>
<radialGradient id="paint0_radial_1_3482" cx="0" cy="0" r="1" gradientUnits="userSpaceOnUse" gradientTransform="translate(14.9999 14.9998) scale(14.9075 15.0942)">
<stop offset="2.23767e-07" stop-color="#CFCFFA"/>
<stop offset="1" stop-color="#767FF7"/>
</radialGradient>
<clipPath id="clip0_1_3482">
<rect width="30" height="30" fill="white"/>
</clipPath>
</defs>
</svg>
